<svg width="11" height="12" viewBox="0 0 11 12" fill="none" xmlns="http://www.w3.org/2000/svg">
<g clip-path="url(#clip0_1_501)">
<path d="M6.07356 5.9528C6.09309 5.88118 6.08007 5.7998 6.0345 5.70866C5.99543 5.63704 5.9401 5.56217 5.86848 5.48405L1.87434 1.49967C1.77017 1.39551 1.64648 1.34342 1.50325 1.34342C1.36002 1.34342 1.23795 1.39551 1.13704 1.49967C1.03612 1.60384 0.985669 1.72754 0.985669 1.87077C0.985669 2.014 1.0345 2.1377 1.13215 2.24186L4.94075 5.94303L1.13215 9.65397C1.04101 9.73861 0.988924 9.84277 0.975903 9.96647C0.962882 10.0902 0.990552 10.2057 1.05891 10.3132C1.12727 10.4206 1.2233 10.4906 1.347 10.5231C1.47069 10.5557 1.58788 10.5492 1.69856 10.5036C1.76366 10.4775 1.82226 10.4385 1.87434 10.3864L5.86848 6.40202C5.9401 6.32389 5.99218 6.25553 6.02473 6.19694C6.0703 6.10579 6.08658 6.02441 6.07356 5.9528ZM10.7611 5.48405L6.76692 1.49967C6.66275 1.39551 6.53905 1.34342 6.39583 1.34342C6.2526 1.34342 6.13053 1.39551 6.02961 1.49967C5.9287 1.60384 5.87825 1.72754 5.87825 1.87077C5.87825 2.014 5.92708 2.1377 6.02473 2.24186L9.83333 5.9528L6.02473 9.64421C5.93359 9.73535 5.8815 9.84277 5.86848 9.96647C5.85546 10.0902 5.88476 10.2041 5.95637 10.3083C6.02799 10.4124 6.12402 10.4824 6.24446 10.5182C6.3649 10.554 6.48046 10.5492 6.59114 10.5036C6.65624 10.4775 6.71158 10.4385 6.75715 10.3864L10.7611 6.41178C10.8327 6.32064 10.8848 6.24902 10.9173 6.19694C10.9629 6.1123 10.9792 6.03092 10.9661 5.9528C10.9987 5.81608 10.9303 5.65983 10.7611 5.48405Z" fill="#3E5765"/>
</g>
<defs>
<clipPath id="clip0_1_501">
<rect width="10" height="10.5" fill="white" transform="matrix(1 0 0 -1 0.972778 11.1931)"/>
</clipPath>
</defs>
</svg>
